<svg xmlns="http://www.w3.org/2000/svg" width="320" height="240" viewBox="0 0 320 240" role="img" aria-hidden="true">
<defs><style><![CDATA[.bg{fill:#07090D}.line{fill:none;stroke:#8FA3B7;stroke-width:1.75;stroke-linecap:round;stroke-linejoin:round;opacity:.78}.muted{fill:none;stroke:#8FA3B7;stroke-width:1.25;stroke-linecap:round;stroke-linejoin:round;opacity:.28}.accent{fill:none;stroke:#5db5d9;stroke-width:2;stroke-linecap:round;stroke-linejoin:round}.dot{fill:#5db5d9}.soft{fill:#8FA3B7;opacity:.22}]]></style></defs>
<g opacity=".35"><path class="muted" d="M20 28V212"/>
<path class="muted" d="M60 28V212"/>
<path class="muted" d="M100 28V212"/>
<path class="muted" d="M140 28V212"/>
<path class="muted" d="M180 28V212"/>
<path class="muted" d="M220 28V212"/>
<path class="muted" d="M260 28V212"/>
<path class="muted" d="M300 28V212"/>
<path class="muted" d="M28 40H292"/>
<path class="muted" d="M28 72H292"/>
<path class="muted" d="M28 104H292"/>
<path class="muted" d="M28 136H292"/>
<path class="muted" d="M28 168H292"/>
<path class="muted" d="M28 200H292"/></g>
<rect class="line" x="90" y="70" width="130" height="88" rx="8"/>
<rect class="muted" x="76" y="88" width="130" height="88" rx="8"/>
<rect class="muted" x="104" y="52" width="130" height="88" rx="8"/>
<path class="accent" d="M118 92h70M118 114h48M118 136h82"/>
<path class="line" d="M206 52v28h28"/>
<path class="muted" d="M96 196h128M120 210h80"/>
<circle class="dot" cx="218" cy="126" r="3"/>
</svg>
