<svg xmlns="http://www.w3.org/2000/svg" width="320" height="240" viewBox="0 0 320 240" role="img" aria-hidden="true">
<defs><style><![CDATA[.bg{fill:#07090D}.line{fill:none;stroke:#8FA3B7;stroke-width:1.75;stroke-linecap:round;stroke-linejoin:round;opacity:.78}.muted{fill:none;stroke:#8FA3B7;stroke-width:1.25;stroke-linecap:round;stroke-linejoin:round;opacity:.28}.accent{fill:none;stroke:#5db5d9;stroke-width:2;stroke-linecap:round;stroke-linejoin:round}.dot{fill:#5db5d9}.soft{fill:#8FA3B7;opacity:.22}]]></style></defs>
<g opacity=".35"><path class="muted" d="M20 28V212"/>
<path class="muted" d="M60 28V212"/>
<path class="muted" d="M100 28V212"/>
<path class="muted" d="M140 28V212"/>
<path class="muted" d="M180 28V212"/>
<path class="muted" d="M220 28V212"/>
<path class="muted" d="M260 28V212"/>
<path class="muted" d="M300 28V212"/>
<path class="muted" d="M28 40H292"/>
<path class="muted" d="M28 72H292"/>
<path class="muted" d="M28 104H292"/>
<path class="muted" d="M28 136H292"/>
<path class="muted" d="M28 168H292"/>
<path class="muted" d="M28 200H292"/></g>
<path class="line" d="M48 154h224"/>
<path class="muted" d="M76 170h168M104 186h112"/>
<path class="accent" d="M102 154a58 58 0 0 1 116 0"/>
<path class="line" d="M86 154l34-34 40 34 40-34 34 34"/>
<path class="muted" d="M160 80v22M122 94l11 18M198 94l-11 18"/>
<circle class="dot" cx="160" cy="154" r="3"/>
</svg>
